<mxfile host="app.diagrams.net" modified="2023-09-08T16:25:38.858Z" agent="Mozilla/5.0 (Windows NT 10.0; Win64; x64) AppleWebKit/537.36 (KHTML, like Gecko) Chrome/116.0.0.0 Safari/537.36" etag="4wCuZ7leD5lqyiMre6rn" version="21.7.2" type="google">
  <diagram name="Page-1" id="5zG7kCC6EmnRIl-oexCE">
    <mxGraphModel grid="1" page="1" gridSize="10" guides="1" tooltips="1" connect="1" arrows="1" fold="1" pageScale="1" pageWidth="850" pageHeight="1100" math="0" shadow="0">
      <root>
        <mxCell id="0" />
        <mxCell id="1" parent="0" />
        <mxCell id="uSbh5QeXG2JKlUTtGhnt-6" value="" style="rounded=0;whiteSpace=wrap;html=1;" vertex="1" parent="1">
          <mxGeometry x="-400" y="40" width="1640" height="1080" as="geometry" />
        </mxCell>
        <mxCell id="uSbh5QeXG2JKlUTtGhnt-8" value="" style="rounded=0;whiteSpace=wrap;html=1;" vertex="1" parent="1">
          <mxGeometry x="-390" y="140" width="1620" height="970" as="geometry" />
        </mxCell>
        <mxCell id="uSbh5QeXG2JKlUTtGhnt-3" value="Store&lt;font style=&quot;font-size: 24px;&quot;&gt;&lt;br&gt;Holder for shared state; Will determine whether to display Inventory, ItemDetail, NewItemForm, or EditItemForm&amp;nbsp;&lt;br&gt;&lt;/font&gt;" style="text;html=1;strokeColor=none;fillColor=none;align=center;verticalAlign=middle;whiteSpace=wrap;rounded=0;strokeWidth=1;fontSize=36;fontStyle=1;spacingTop=-12;" vertex="1" parent="1">
          <mxGeometry x="-380" y="140" width="1600" height="100" as="geometry" />
        </mxCell>
        <mxCell id="uSbh5QeXG2JKlUTtGhnt-4" value="" style="rounded=0;whiteSpace=wrap;html=1;" vertex="1" parent="1">
          <mxGeometry x="-380" y="240" width="390" height="410" as="geometry" />
        </mxCell>
        <mxCell id="uSbh5QeXG2JKlUTtGhnt-5" value="" style="rounded=0;whiteSpace=wrap;html=1;" vertex="1" parent="1">
          <mxGeometry x="25" y="240" width="390" height="860" as="geometry" />
        </mxCell>
        <mxCell id="uSbh5QeXG2JKlUTtGhnt-7" value="&lt;font style=&quot;font-size: 40px;&quot;&gt;&lt;b&gt;Header&lt;/b&gt;&lt;/font&gt;" style="rounded=0;whiteSpace=wrap;html=1;" vertex="1" parent="1">
          <mxGeometry x="-70" y="60" width="980" height="60" as="geometry" />
        </mxCell>
        <mxCell id="uSbh5QeXG2JKlUTtGhnt-9" value="" style="rounded=0;whiteSpace=wrap;html=1;" vertex="1" parent="1">
          <mxGeometry x="830" y="240" width="390" height="860" as="geometry" />
        </mxCell>
        <mxCell id="uSbh5QeXG2JKlUTtGhnt-12" value="Inventory" style="text;html=1;strokeColor=none;fillColor=none;align=center;verticalAlign=middle;whiteSpace=wrap;rounded=0;fontSize=30;fontStyle=1" vertex="1" parent="1">
          <mxGeometry x="-355" y="260" width="340" height="60" as="geometry" />
        </mxCell>
        <mxCell id="uSbh5QeXG2JKlUTtGhnt-13" value="" style="rounded=0;whiteSpace=wrap;html=1;" vertex="1" parent="1">
          <mxGeometry x="425" y="240" width="390" height="860" as="geometry" />
        </mxCell>
        <mxCell id="uSbh5QeXG2JKlUTtGhnt-11" value="NewItemForm" style="text;html=1;strokeColor=none;fillColor=none;align=center;verticalAlign=middle;whiteSpace=wrap;rounded=0;fontSize=30;fontStyle=1" vertex="1" parent="1">
          <mxGeometry x="455" y="260" width="340" height="60" as="geometry" />
        </mxCell>
        <mxCell id="uSbh5QeXG2JKlUTtGhnt-10" value="ItemDetail" style="text;html=1;strokeColor=none;fillColor=none;align=center;verticalAlign=middle;whiteSpace=wrap;rounded=0;fontSize=30;fontStyle=1" vertex="1" parent="1">
          <mxGeometry x="50" y="260" width="340" height="60" as="geometry" />
        </mxCell>
        <mxCell id="uSbh5QeXG2JKlUTtGhnt-14" value="EditItemForm" style="text;html=1;strokeColor=none;fillColor=none;align=center;verticalAlign=middle;whiteSpace=wrap;rounded=0;fontSize=30;fontStyle=1" vertex="1" parent="1">
          <mxGeometry x="855" y="260" width="340" height="60" as="geometry" />
        </mxCell>
        <mxCell id="uSbh5QeXG2JKlUTtGhnt-15" value="Item&lt;br style=&quot;font-size: 29px;&quot;&gt;&lt;span style=&quot;font-size: 15px;&quot;&gt;Will show price and clicking on an item will show item details&lt;/span&gt;" style="rounded=0;whiteSpace=wrap;html=1;fontSize=30;fontStyle=1" vertex="1" parent="1">
          <mxGeometry x="-370" y="330" width="370" height="110" as="geometry" />
        </mxCell>
        <mxCell id="uSbh5QeXG2JKlUTtGhnt-16" value="Item" style="rounded=0;whiteSpace=wrap;html=1;fontSize=30;fontStyle=1" vertex="1" parent="1">
          <mxGeometry x="-370" y="450" width="370" height="80" as="geometry" />
        </mxCell>
        <mxCell id="uSbh5QeXG2JKlUTtGhnt-17" value="Item" style="rounded=0;whiteSpace=wrap;html=1;fontSize=30;fontStyle=1" vertex="1" parent="1">
          <mxGeometry x="-370" y="560" width="370" height="80" as="geometry" />
        </mxCell>
        <mxCell id="uSbh5QeXG2JKlUTtGhnt-18" value="" style="rounded=0;whiteSpace=wrap;html=1;" vertex="1" parent="1">
          <mxGeometry x="-380" y="670" width="390" height="430" as="geometry" />
        </mxCell>
        <mxCell id="uSbh5QeXG2JKlUTtGhnt-19" value="&lt;b style=&quot;&quot;&gt;&lt;font style=&quot;&quot;&gt;&lt;span style=&quot;font-size: 30px;&quot;&gt;Button&lt;/span&gt;&lt;br&gt;&lt;span style=&quot;font-size: 20px;&quot;&gt;Lives in Store, will display as &quot;Add Item&quot; when Inventory is displayed and as &quot;Return to inventory&quot; when ItemDetail, NewItemForm, or EditItemForm are displayed&lt;/span&gt;&lt;br&gt;&lt;/font&gt;&lt;/b&gt;" style="text;html=1;strokeColor=none;fillColor=none;align=center;verticalAlign=middle;whiteSpace=wrap;rounded=0;" vertex="1" parent="1">
          <mxGeometry x="-370" y="680" width="370" height="170" as="geometry" />
        </mxCell>
        <mxCell id="uSbh5QeXG2JKlUTtGhnt-21" value="&lt;font style=&quot;font-size: 20px;&quot;&gt;&lt;b&gt;Display an items details including description, quantity, and price&lt;/b&gt;&lt;/font&gt;" style="text;html=1;strokeColor=none;fillColor=none;align=center;verticalAlign=middle;whiteSpace=wrap;rounded=0;" vertex="1" parent="1">
          <mxGeometry x="50" y="340" width="340" height="100" as="geometry" />
        </mxCell>
        <mxCell id="uSbh5QeXG2JKlUTtGhnt-22" value="&lt;b style=&quot;font-size: 30px;&quot;&gt;Edit&lt;br&gt;&lt;/b&gt;&lt;font style=&quot;font-size: 20px;&quot;&gt;&lt;b&gt;Clicking this button will display EditItemForm&lt;/b&gt;&lt;/font&gt;" style="rounded=0;whiteSpace=wrap;html=1;" vertex="1" parent="1">
          <mxGeometry x="40" y="750" width="360" height="150" as="geometry" />
        </mxCell>
        <mxCell id="uSbh5QeXG2JKlUTtGhnt-24" value="&lt;font style=&quot;&quot;&gt;&lt;b style=&quot;&quot;&gt;&lt;span style=&quot;font-size: 30px;&quot;&gt;Delete&lt;br&gt;&lt;/span&gt;&lt;span style=&quot;font-size: 20px;&quot;&gt;Clicking this button will delete item from inventory and then display the inventory&lt;/span&gt;&lt;/b&gt;&lt;/font&gt;" style="rounded=0;whiteSpace=wrap;html=1;" vertex="1" parent="1">
          <mxGeometry x="40" y="940" width="360" height="150" as="geometry" />
        </mxCell>
        <mxCell id="uSbh5QeXG2JKlUTtGhnt-25" value="&lt;b style=&quot;&quot;&gt;&lt;font style=&quot;font-size: 30px;&quot;&gt;Submit&lt;/font&gt;&lt;br&gt;&lt;span style=&quot;font-size: 20px;&quot;&gt;Clicking this button will add a new item to inventory and then display Inventory&lt;/span&gt;&lt;/b&gt;" style="rounded=0;whiteSpace=wrap;html=1;" vertex="1" parent="1">
          <mxGeometry x="450" y="820" width="340" height="180" as="geometry" />
        </mxCell>
        <mxCell id="uSbh5QeXG2JKlUTtGhnt-26" value="&lt;b style=&quot;&quot;&gt;&lt;font style=&quot;font-size: 30px;&quot;&gt;Submit&lt;/font&gt;&lt;br&gt;&lt;span style=&quot;font-size: 20px;&quot;&gt;Clicking this button will update the selected item and then display the Inventory&lt;/span&gt;&lt;/b&gt;" style="rounded=0;whiteSpace=wrap;html=1;" vertex="1" parent="1">
          <mxGeometry x="855" y="820" width="340" height="180" as="geometry" />
        </mxCell>
      </root>
    </mxGraphModel>
  </diagram>
</mxfile>
